<?xml version="1.0" standalone="no"?><!-- Generator: Gravit.io --><svg xmlns="http://www.w3.org/2000/svg" xmlns:xlink="http://www.w3.org/1999/xlink" style="isolation:isolate" viewBox="10 -10 40.001 60" width="40.001" height="60"><g><path d=" M 30 50 C 20.125 50 10 40 10 30 C 10 20 11.25 17.75 20 10 C 25.325 5.284 29.875 5.5 30 0 Q 30.125 -5.5 20 -10 Q 33.438 -8.125 40 0 C 46.563 8.125 50.063 17.875 50 30 C 49.93 43.501 39.875 50 30 50 Z " fill="rgb(255,0,0)"/><path d=" M 30 50 C 19.188 50 19.938 42.313 20 40 C 20.063 37.688 29.75 35.5 30 30 Q 30.25 24.5 30 20 Q 36.375 24.5 40 30 C 43.408 35.171 40.813 50 30 50 Z " fill="rgb(191,255,0)"/></g></svg>